<svg width="1920" height="1080" xmlns="http://www.w3.org/2000/svg">
  <defs>
    <linearGradient id="grad1" x1="0%" y1="0%" x2="100%" y2="100%">
      <stop offset="0%" style="stop-color:#25003B;stop-opacity:1" />
      <stop offset="100%" style="stop-color:#3A0059;stop-opacity:1" />
    </linearGradient>
    <radialGradient id="grad2" cx="50%" cy="50%" r="50%" fx="50%" fy="50%">
      <stop offset="0%" style="stop-color:#9B30FF;stop-opacity:0.5" />
      <stop offset="100%" style="stop-color:#25003B;stop-opacity:0" />
    </radialGradient>
    <filter id="glow" x="-50%" y="-50%" width="200%" height="200%">
      <feGaussianBlur stdDeviation="10" result="blur" />
      <feComposite in="SourceGraphic" in2="blur" operator="over" />
    </filter>
    <filter id="noise" x="0%" y="0%" width="100%" height="100%">
      <feTurbulence type="fractalNoise" baseFrequency="0.01" numOctaves="3" result="noise" />
      <feDisplacementMap in="SourceGraphic" in2="noise" scale="5" xChannelSelector="R" yChannelSelector="G" />
    </filter>
  </defs>
  
  <!-- Main background -->
  <rect width="1920" height="1080" fill="url(#grad1)" />
  
  <!-- Accent circles -->
  <circle cx="960" cy="540" r="600" fill="url(#grad2)" filter="url(#noise)" />
  
  <!-- Glowing effect -->
  <g filter="url(#glow)">
    <circle cx="400" cy="300" r="50" fill="#9B30FF" opacity="0.2" />
    <circle cx="1500" cy="700" r="70" fill="#9B30FF" opacity="0.2" />
    <circle cx="800" cy="900" r="40" fill="#9B30FF" opacity="0.2" />
    <circle cx="1200" cy="200" r="60" fill="#9B30FF" opacity="0.2" />
  </g>
  
  <!-- Grid pattern -->
  <g opacity="0.05">
    <path d="M0,0 L1920,0 L1920,1080 L0,1080 Z" fill="none" stroke="#FFB724" stroke-width="1" stroke-dasharray="20,20" />
    
    <!-- Horizontal lines -->
    <line x1="0" y1="120" x2="1920" y2="120" stroke="#FFB724" stroke-width="1" />
    <line x1="0" y1="240" x2="1920" y2="240" stroke="#FFB724" stroke-width="1" />
    <line x1="0" y1="360" x2="1920" y2="360" stroke="#FFB724" stroke-width="1" />
    <line x1="0" y1="480" x2="1920" y2="480" stroke="#FFB724" stroke-width="1" />
    <line x1="0" y1="600" x2="1920" y2="600" stroke="#FFB724" stroke-width="1" />
    <line x1="0" y1="720" x2="1920" y2="720" stroke="#FFB724" stroke-width="1" />
    <line x1="0" y1="840" x2="1920" y2="840" stroke="#FFB724" stroke-width="1" />
    <line x1="0" y1="960" x2="1920" y2="960" stroke="#FFB724" stroke-width="1" />
    
    <!-- Vertical lines -->
    <line x1="120" y1="0" x2="120" y2="1080" stroke="#FFB724" stroke-width="1" />
    <line x1="240" y1="0" x2="240" y2="1080" stroke="#FFB724" stroke-width="1" />
    <line x1="360" y1="0" x2="360" y2="1080" stroke="#FFB724" stroke-width="1" />
    <line x1="480" y1="0" x2="480" y2="1080" stroke="#FFB724" stroke-width="1" />
    <line x1="600" y1="0" x2="600" y2="1080" stroke="#FFB724" stroke-width="1" />
    <line x1="720" y1="0" x2="720" y2="1080" stroke="#FFB724" stroke-width="1" />
    <line x1="840" y1="0" x2="840" y2="1080" stroke="#FFB724" stroke-width="1" />
    <line x1="960" y1="0" x2="960" y2="1080" stroke="#FFB724" stroke-width="1" />
    <line x1="1080" y1="0" x2="1080" y2="1080" stroke="#FFB724" stroke-width="1" />
    <line x1="1200" y1="0" x2="1200" y2="1080" stroke="#FFB724" stroke-width="1" />
    <line x1="1320" y1="0" x2="1320" y2="1080" stroke="#FFB724" stroke-width="1" />
    <line x1="1440" y1="0" x2="1440" y2="1080" stroke="#FFB724" stroke-width="1" />
    <line x1="1560" y1="0" x2="1560" y2="1080" stroke="#FFB724" stroke-width="1" />
    <line x1="1680" y1="0" x2="1680" y2="1080" stroke="#FFB724" stroke-width="1" />
    <line x1="1800" y1="0" x2="1800" y2="1080" stroke="#FFB724" stroke-width="1" />
  </g>
  
  <!-- Subtle particles -->
  <g opacity="0.2">
    <circle cx="200" cy="300" r="3" fill="#FFB724" />
    <circle cx="500" cy="200" r="2" fill="#FFB724" />
    <circle cx="800" cy="400" r="4" fill="#FFB724" />
    <circle cx="1200" cy="300" r="3" fill="#FFB724" />
    <circle cx="1500" cy="500" r="2" fill="#FFB724" />
    <circle cx="1700" cy="200" r="4" fill="#FFB724" />
    <circle cx="300" cy="700" r="3" fill="#FFB724" />
    <circle cx="600" cy="800" r="2" fill="#FFB724" />
    <circle cx="900" cy="600" r="4" fill="#FFB724" />
    <circle cx="1300" cy="700" r="3" fill="#FFB724" />
    <circle cx="1600" cy="800" r="2" fill="#FFB724" />
    <circle cx="1800" cy="600" r="4" fill="#FFB724" />
  </g>
  
  <!-- Extra sparkles -->
  <g opacity="0.3" filter="url(#glow)">
    <circle cx="300" cy="200" r="1" fill="#FFB724" />
    <circle cx="700" cy="300" r="1" fill="#FFB724" />
    <circle cx="1100" cy="400" r="1" fill="#FFB724" />
    <circle cx="1400" cy="600" r="1" fill="#FFB724" />
    <circle cx="1700" cy="800" r="1" fill="#FFB724" />
    <circle cx="500" cy="900" r="1" fill="#FFB724" />
    <circle cx="900" cy="100" r="1" fill="#FFB724" />
  </g>
</svg>